<svg width="30" height="39" viewBox="0 0 30 39" fill="none" xmlns="http://www.w3.org/2000/svg">
<path d="M0.366455 36.1607C2.68253 37.5695 5.27029 38.4818 7.96541 38.8351C10.9917 39.2318 14.0688 38.9126 16.9491 37.9031C19.8295 36.8937 22.4327 35.2222 24.5493 33.0232C26.6659 30.8242 28.2367 28.1591 29.1354 25.2423C30.0341 22.3255 30.2356 19.2384 29.7236 16.2295C29.2117 13.2206 28.0005 10.3739 26.1877 7.9185C24.3749 5.46305 22.011 3.46741 19.2863 2.09217C16.8597 0.8674 14.2072 0.165149 11.4999 0.0261378L11.4999 1.02753C14.0506 1.1656 16.5489 1.83068 18.8357 2.9849C21.4207 4.28962 23.6634 6.18291 25.3832 8.51244C27.1031 10.842 28.2521 13.5427 28.7378 16.3973C29.2235 19.2519 29.0324 22.1806 28.1797 24.9478C27.3271 27.7151 25.8368 30.2435 23.8288 32.3298C21.8208 34.416 19.3511 36.0017 16.6184 36.9594C13.8857 37.9171 10.9664 38.2199 8.09539 37.8436C5.55549 37.5106 3.11611 36.6543 0.930032 35.333L0.366455 36.1607Z" fill="white"/>
</svg>
